PathFileType	4	(X/Y/Z)	C:/Users/beibeiliu/ov580/test_trc\sequence.40_training_dense_right.trc
DataRate	CameraRate	NumFrames	NumMarkers	Units	OrigDataRate	OrigDataStartFrame	OrigNumFrames
120	120	16	19	mm	120	301	400
Frame#	Time	ThumbCMC			ThumbMCP			ThumbIP			ThumbTip			IndexMCP			IndexPIP			IndexTip			MiddleMCP			MiddlePIP			MiddleTip			RingMCP			RingPIP			RingTip			PinkyMCP			PinkyPIP			PinkyTip			BackHand1			BackHand2			BackHand3	
		X0	Y0	Z0	X1	Y1	Z1	X2	Y2	Z2	X3	Y3	Z3	X4	Y4	Z4	X5	Y5	Z5	X6	Y6	Z6	X7	Y7	Z7	X8	Y8	Z8	X9	Y9	Z9	X10	Y10	Z10	X11	Y11	Z11	X12	Y12	Z12	X13	Y13	Z13	X14	Y14	Z14	X15	Y15	Z15	X16	Y16	Z16	X17	Y17	Z17	X18	Y18	Z18	
300	2.5	293.75	19.3163	68.5068	285.756	33.8298	33.9476	273.47	29.6966	9.92589	257.196	22.5206	-1.13768	300.204	-13.8375	9.59731	294.418	-4.36536	-14.105	283.923	19.1306	-27.4958	285.007	-29.2168	8.52688	283.25	-28.0771	-16.1947	268.145	-15.4724	-40.2874	266.317	-30.372	15.8906	263.422	-27.3304	-9.81736	260.845	-12.1564	-27.3541	247.605	-25.1057	20.7183	243.945	-11.9826	-0.232926	245.806	5.68189	-7.94122	270.709	-26.356	59.94	269.094	-20.3946	85.3013	294.893	-13.4159	71.622	
301	2.50833	297.289	22.3128	67.6268	284.542	30.7042	33.8995	273.738	30.9862	11.1476	255.039	18.7423	-2.68156	300.987	-14.2754	9.49539	294.342	-3.83215	-14.8938	281.94	18.2059	-27.2983	282.5	-30.8496	6.32299	280.465	-27.987	-19.4641	268.096	-13.7037	-42.5063	266.935	-29.8262	12.4063	264.689	-26.801	-9.85837	261.587	-9.69882	-30.4417	250.992	-23.8003	20.1593	245.097	-14.5447	3.07753	244.21	10.6085	-9.72426	268.048	-25.3251	61.8117	267.49	-20.5754	88.5702	291.119	-16.2095	68.2974	
302	2.51667	294.235	19.0185	66.4238	284.347	29.6128	34.9226	273.504	28.3256	12.0492	256.701	20.4028	0.476226	302.218	-13.6912	11.1346	291.799	-4.38885	-15.1037	281.918	19.1772	-27.1072	284.182	-28.5086	9.82958	278.572	-28.0577	-19.6784	268.769	-14.2881	-42.8653	264.96	-32.132	12.4878	261.278	-26.3955	-11.6677	257.281	-10.6251	-30.3079	249.864	-25.0883	20.8682	243.89	-13.6865	1.14788	244.186	7.54506	-7.81548	271.522	-26.2873	59.7428	268.959	-19.019	88.7673	292.913	-16.1737	68.8727	
303	2.525	296.245	20.5489	66.7137	284.787	29.3616	33.0044	273.387	29.2096	9.69987	256.572	23.1223	-2.90297	300.234	-14.9361	11.7814	295.736	-4.4003	-15.8543	284.937	14.6893	-26.8956	282.914	-31.309	6.87785	282.908	-27.4157	-22.0086	271.852	-14.8422	-41.5462	266.794	-30.4289	16.6936	261.129	-27.7293	-11.8897	258.866	-10.6455	-30.9574	247.323	-27.1839	19.2118	244.925	-16.3781	2.62953	248.607	6.26508	-11.0315	271.905	-26.072	57.8532	269.604	-19.9442	85.4895	295.268	-13.9513	69.9837	
304	2.53333	294.39	19.0826	67.0821	285.579	29.6418	34.9686	274.054	27.0132	13.7912	257.651	21.8716	0.181077	302.641	-13.9567	7.57821	295.866	-6.34734	-14.0229	280.736	16.3435	-26.2861	285.882	-30.1567	7.28429	280.818	-28.4675	-19.288	272.247	-12.1639	-44.7693	268.344	-30.6219	12.2466	263.122	-25.8873	-14.3727	258.598	-11.6869	-28.8975	246.922	-28.155	20.8018	245.528	-19.5627	3.52625	242.398	-0.790686	-10.1879	270.434	-27.0317	58.7929	268.882	-22.1316	84.2541	296.396	-15.2808	71.7807	
305	2.54167	294.632	18.877	68.101	286.753	31.9356	38.2292	274.625	26.2668	13.2102	257.297	19.7981	-0.451717	300.772	-14.1518	10.4921	296.385	-5.97659	-14.4243	283.471	15.2576	-27.4721	284.828	-29.5623	9.93376	281.847	-26.9841	-21.2217	272.73	-13.5077	-42.3564	266.062	-31.4291	11.5121	263.782	-27.359	-10.2796	259.215	-10.648	-29.5378	244.701	-28.0962	25.1883	242.266	-20.2657	-0.163433	246.02	-5.96927	-12.0713	267.824	-26.7251	61.9216	265.349	-24.0193	84.7354	294.315	-14.3981	71.0921	
306	2.55	296.436	18.9468	66.7055	287.943	32.8967	35.8054	276.963	31.4115	11.4866	259.884	25.2938	-0.3141	303.058	-13.7421	6.38969	293.484	-5.81538	-14.9957	281.167	14.8288	-27.5706	283.234	-30.8051	8.03964	281.972	-27.2162	-22.1401	270.568	-14.4426	-42.0434	264.92	-30.4738	14.1423	262.089	-25.7529	-11.3039	254.266	-9.27869	-30.4089	247.769	-28.816	22.8765	242.337	-25.1014	4.64762	241.551	-9.87744	-17.929	268.71	-25.7965	62.3754	263.639	-21.1877	87.0927	290.044	-16.9535	68.2429	
307	2.55833	295.513	18.0223	66.7949	287.504	30.3805	37.0405	278.45	31.2343	15.3535	259.03	25.4794	-5.21552	297.064	-15.4199	6.37744	295.579	-1.99413	-18.2689	285.813	17.1922	-27.5505	283.83	-30.6224	6.42495	280.218	-27.1825	-22.0898	271.816	-13.8149	-42.5608	261.03	-31.509	12.9567	261.589	-23.3117	-11.6908	255.138	-4.33387	-29.4209	242.726	-28.3349	23.9704	241.512	-23.4254	1.27376	243.666	-11.5796	-17.2647	264.819	-26.3972	59.1246	267.739	-20.3991	82.5277	291.631	-17.3522	68.7519	
308	2.56667	295.125	15.9423	66.9109	290.506	32.1674	39.9896	280.387	33.101	16.5248	262.176	26.9577	-1.51531	297.756	-14.9424	8.8414	291.108	-3.39107	-17.4666	284.527	14.6597	-27.1004	279.81	-30.4979	5.47066	277.346	-28.0607	-18.3338	269.456	-10.5151	-41.9194	260.427	-29.8614	10.8663	256.354	-21.3089	-11.2566	256.803	-0.632476	-25.1251	246.713	-25.2469	26.8804	241.166	-23.5181	3.6172	241.684	-9.90464	-18.5345	265.209	-25.8177	58.9609	265.612	-22.3571	82.8483	291.281	-15.8388	68.1862	
309	2.575	295.827	16.1696	68.071	291.633	30.5697	34.675	281.103	32.1181	11.2617	263.866	27.177	-0.168871	302.071	-12.9759	6.94156	294.463	-4.98408	-15.6418	285.271	17.6883	-27.2063	279.854	-28.6289	9.39316	275.968	-24.571	-22.3807	268.306	-7.40156	-41.2814	261.918	-26.8668	9.27648	256.442	-17.6492	-12.4951	253.825	7.5335	-24.1711	243.301	-25.0013	24.2779	241.681	-23.3881	4.85698	241.75	-11.3706	-16.0571	266.798	-24.768	62.5358	263.161	-21.9509	85.6177	289.998	-18.726	67.7459	
310	2.58333	298.114	18.0735	66.1509	290.145	30.4991	38.5347	283.544	36.147	15.0619	265.193	29.3403	-0.797701	301.215	-12.3575	6.62129	295.81	-4.26122	-14.9131	285.663	16.878	-26.4654	280.762	-26.235	7.66006	276.162	-23.8056	-19.6367	271.944	-3.61969	-41.9584	259.343	-24.6713	13.2356	260.052	-10.0966	-13.1644	257.819	14.4521	-19.9818	242.861	-24.8008	23.3246	244.417	-18.8988	0.998846	241.702	-6.7119	-17.856	267.782	-25.2732	59.3748	265.448	-19.3894	84.5636	290.587	-16.1587	67.1803	
311	2.59167	297.084	16.8673	67.3895	293.03	34.33	40.8915	283.539	34.9842	18.8512	267.367	34.3759	-0.87434	299.944	-12.5879	8.18014	296.364	-2.84722	-14.7362	287.074	23.886	-28.5271	283.606	-24.9618	5.16483	277.67	-21.6554	-21.1135	271.235	-2.10469	-40.6801	263.086	-20.9158	11.2356	258.246	-5.63995	-13.8662	257.357	20.9699	-16.2327	242.413	-21.6109	25.7674	238.762	-19.0038	2.26245	243.311	-5.8142	-17.0299	266.041	-22.6982	59.0776	264.064	-20.4964	83.1454	289.578	-15.5188	68.7356	
312	2.6	298.393	18.7916	68.5116	293.608	34.3847	39.638	284.792	38.2504	14.6262	266.006	33.358	-1.32844	303.096	-9.92073	6.1243	295.261	0.391848	-17.245	287.555	20.4957	-27.4096	284.14	-23.8899	5.5963	279.955	-18.9709	-22.8617	271.492	1.19273	-40.6539	261.417	-20.666	7.04528	258.937	-3.93691	-12.0002	258.074	24.939	-12.9193	245.409	-21.7196	21.1065	242.254	-16.0833	0.785886	237.195	-2.847	-18.8982	263.9	-25.947	59.5365	268.465	-20.1249	81.1162	294.237	-16.9101	67.1513	
313	2.60833	297.883	17.0833	65.9081	295.141	37.0143	38.9879	286.149	39.3923	15.3649	268.173	37.323	-3.62115	299.587	-10.1315	8.60703	298.357	3.06154	-17.1145	288.288	22.9586	-27.6638	279.642	-24.9198	4.87317	277.315	-18.0152	-22.1921	271.428	2.69557	-41.3822	259.386	-20.5941	11.2363	257.078	-3.84636	-12.2209	256.543	23.4194	-12.3822	243.473	-20.9172	21.2747	242.097	-15.6442	-0.657755	235.784	-5.39289	-16.799	266.713	-23.4596	55.6469	263.495	-20.5015	85.6357	290.846	-16.242	68.0773	
314	2.61667	301.116	20.4116	69.1353	293.808	35.8467	41.2634	283.216	35.6674	14.0379	267.706	35.1927	-2.8872	301.757	-9.43978	5.49986	298.625	1.1896	-16.1344	286.85	23.1027	-26.9211	282.251	-23.5573	5.19774	278.879	-15.9196	-24.81	267.728	1.5226	-39.9633	260.868	-19.7036	9.13266	260.108	-3.64375	-11.4703	259.215	25.4376	-11.379	246.855	-19.67	23.8944	242.204	-16.3298	1.35566	241.364	-5.84357	-17.6083	263.81	-24.1628	55.7954	268.344	-18.5022	82.0224	293.303	-14.5854	68.1364	
315	2.625	298.285	18.7965	70.0921	293.051	35.8692	41.0203	283.068	36.6331	16.7662	268.754	38.3061	-3.92273	300.046	-9.71157	7.69798	294.646	-1.13367	-14.6748	286.238	26.1146	-28.6779	283.514	-22.8492	7.06037	276.446	-18.0048	-23.4532	271.8	1.87918	-40.1098	260.093	-20.6194	6.96708	258.716	-4.93853	-11.2735	259.022	25.2653	-11.3596	244.043	-21.4786	20.3034	242.065	-15.5278	0.717316	236.896	-2.79101	-19.1303	266.056	-24.6025	55.9222	266.072	-18.7904	83.7491	292.741	-17.2239	67.1724	
